<?xml version="1.0" encoding="iso-8859-1"?>
<!-- Generator: Adobe Illustrator 19.0.0, SVG Export Plug-In . SVG Version: 6.00 Build 0)  -->
<svg version="1.1" id="Layer_1" xmlns="http://www.w3.org/2000/svg" xmlns:xlink="http://www.w3.org/1999/xlink" x="0px" y="0px"
	 viewBox="0 0 512 512" style="enable-background:new 0 0 512 512;" xml:space="preserve">
<g>
	<g>
		<path d="M405.947,314.146c-1.003-5.715-1.137-11.47-0.394-17.133c0.247-1.935,0.628-3.94,1.125-5.947
			c19.539-78.621,10.637-155.29-24.423-210.346c-3.161-4.964-9.748-6.428-14.712-3.264c-4.965,3.161-6.426,9.747-3.264,14.712
			c31.938,50.155,39.852,120.777,21.713,193.766c-0.226,0.914-0.428,1.828-0.619,2.74c-18.155,9.64-33.537,19.092-41.296,32.465
			c-7.678,13.236-7.422,28.378,1.025,48.186l-27.676,12.888c-3.089,1.439-5.307,4.279-5.962,7.622
			c-0.119,0.609-11.289,55.851-46.419,92.883c-4.681-8.495-12.624-19.878-25.833-35.013c-7.324-8.39-18.737-14.063-30.82-20.071
			c-25.149-12.502-51.152-25.43-54.082-63.299c-2.763-35.685-12.045-66.516-21.021-96.332c-16.362-54.35-29.283-97.28,3.018-147.63
			c0.063-0.097,0.124-0.196,0.182-0.294c0.149-0.249,15.129-25.287,33.398-50.177c33.594-45.767,46.598-47.963,47.972-48.063
			c39.991-2.913,75.113,5.88,104.371,26.142c4.839,3.348,11.477,2.144,14.827-2.694c3.351-4.839,2.145-11.478-2.693-14.827
			C301.474,7.68,260.65-2.654,216.314,0.58c-9.979,0.725-27.438,7.404-63.695,56.828c-18.305,24.953-32.932,49.245-34.341,51.598
			c-37.486,58.55-21.896,110.323-5.396,165.138c8.65,28.734,17.594,58.444,20.18,91.835c3.862,49.925,39.685,67.734,65.843,80.739
			c10.136,5.039,19.71,9.798,24.25,15.001c23.545,26.98,26.546,38.269,26.847,39.711c0.029,3.825,2.119,7.387,5.532,9.259
			c1.606,0.88,3.367,1.312,5.123,1.312c2.41,0,4.804-0.816,6.75-2.409c42.692-34.929,59.424-92.348,63.768-110.272l30.962-14.418
			c0.387-0.103,0.773-0.222,1.154-0.372c0.8-0.314,1.533-0.722,2.209-1.195l15.774-7.345c19.293-9.204,30.194-30.338,26.505-51.4
			L405.947,314.146z M372.185,356.713l-7.751,3.609c-6.748-16.148-4.711-23.68-1.922-28.488
			c3.727-6.424,11.873-12.387,21.833-18.228c0.169,1.41,0.364,2.819,0.612,4.224l1.832,10.439
			C388.83,339.94,382.79,351.654,372.185,356.713z"/>
	</g>
</g>
<g>
	<g>
		<path d="M362.152,54.601c-0.981-1.058-1.975-2.104-2.979-3.135c-4.108-4.215-10.853-4.304-15.07-0.197
			c-4.216,4.107-4.303,10.854-0.197,15.07c0.886,0.908,1.759,1.828,2.622,2.757c2.1,2.263,4.952,3.409,7.814,3.409
			c2.594,0,5.195-0.942,7.246-2.844C365.902,65.658,366.155,58.915,362.152,54.601z"/>
	</g>
</g>
<g>
	<g>
		<path d="M311.618,229.235c-5.884,0-10.656,4.772-10.656,10.656c0,4.196-3.413,7.61-7.609,7.61c-4.196,0-7.61-3.413-7.61-7.61
			c0-5.884-4.772-10.656-10.656-10.656s-10.656,4.772-10.656,10.656c0.001,15.948,12.975,28.922,28.922,28.922
			c15.947,0,28.921-12.974,28.921-28.922C322.274,234.007,317.502,229.235,311.618,229.235z"/>
	</g>
</g>
<g>
	<g>
		<path d="M231.185,147.331c-0.756,0-1.468,0-2.597-2.018c-7.251-12.966-0.754-52.852,11.985-73.584
			c0.004-0.006,0.009-0.016,0.014-0.024c0.185-0.303,0.356-0.616,0.511-0.938c0.155-0.319,0.291-0.643,0.41-0.97
			c0.002-0.006,0.004-0.013,0.007-0.02c0.114-0.313,0.211-0.635,0.296-0.961c0.013-0.049,0.021-0.098,0.033-0.147
			c0.07-0.284,0.13-0.573,0.177-0.866c0.004-0.025,0.006-0.049,0.01-0.075c0.079-0.518,0.129-1.046,0.129-1.587
			c0-0.13-0.015-0.257-0.019-0.387c-0.001-0.042-0.004-0.083-0.006-0.125c-0.019-0.398-0.067-0.788-0.129-1.172
			c-0.01-0.062-0.021-0.124-0.032-0.186c-0.142-0.798-0.371-1.564-0.679-2.29c-0.014-0.033-0.03-0.067-0.044-0.1
			c-0.322-0.737-0.724-1.43-1.197-2.068c-0.044-0.059-0.088-0.117-0.133-0.175c-0.49-0.633-1.049-1.208-1.667-1.717
			c-0.047-0.038-0.093-0.077-0.141-0.115c-0.327-0.26-0.668-0.501-1.024-0.721c-0.006-0.003-0.011-0.009-0.017-0.012
			c-0.032-0.02-0.065-0.035-0.098-0.055c-0.194-0.116-0.389-0.229-0.59-0.332c-0.051-0.027-0.103-0.049-0.154-0.075
			c-0.19-0.094-0.379-0.187-0.574-0.269c-0.08-0.034-0.162-0.062-0.242-0.094c-0.168-0.066-0.336-0.134-0.508-0.193
			c-0.256-0.086-0.513-0.163-0.772-0.23c-0.006-0.001-0.013-0.003-0.019-0.005c-0.318-0.081-0.638-0.144-0.959-0.195
			c-0.035-0.005-0.07-0.011-0.107-0.016c-0.297-0.044-0.595-0.074-0.893-0.092c-0.059-0.003-0.117-0.006-0.176-0.008
			c-0.159-0.008-0.314-0.023-0.475-0.023c-0.118,0-0.231,0.016-0.348,0.02c-0.103,0.003-0.206,0.011-0.309,0.017
			c-0.271,0.017-0.541,0.036-0.809,0.073c-0.026,0.003-0.05,0.01-0.075,0.013c-0.966,0.141-1.888,0.409-2.751,0.791
			c-0.05,0.022-0.1,0.039-0.15,0.063c-0.059,0.027-0.12,0.046-0.178,0.073c-3.057,1.356-18.248,8.576-33.39,24.398
			c-14.856,15.52-32.566,42.707-32.566,84.088c0,19.797,6.282,34.8,18.67,44.595c11.89,9.4,26.957,11.673,38.754,11.672
			c9.757,0,17.262-1.553,18.887-1.917c17.266-2.905,30.22-18.169,30.22-35.755C267.461,163.608,251.187,147.331,231.185,147.331z
			 M233.476,198.4c-0.152,0.023-0.297,0.062-0.448,0.091c-0.129,0.024-0.257,0.039-0.386,0.069
			c-7.045,1.631-27.949,3.783-39.881-5.705c-7.08-5.629-10.522-14.733-10.522-27.833c0-27.276,8.801-50.434,26.157-68.834
			c0.007-0.008,0.014-0.014,0.021-0.022c-5.354,22.158-6.017,45.989,1.568,59.552c4.663,8.338,12.192,12.928,21.2,12.928
			c8.25,0,14.961,6.717,14.961,14.972C246.146,190.949,240.699,197.305,233.476,198.4z"/>
	</g>
</g>
<g>
</g>
<g>
</g>
<g>
</g>
<g>
</g>
<g>
</g>
<g>
</g>
<g>
</g>
<g>
</g>
<g>
</g>
<g>
</g>
<g>
</g>
<g>
</g>
<g>
</g>
<g>
</g>
<g>
</g>
</svg>
