<?xml version="1.0" encoding="utf-8"?>
<!-- Generator: Adobe Illustrator 20.1.0, SVG Export Plug-In . SVG Version: 6.00 Build 0)  -->
<svg version="1.1" id="Layer_2" xmlns="http://www.w3.org/2000/svg" xmlns:xlink="http://www.w3.org/1999/xlink" x="0px" y="0px"
	 viewBox="0 0 338.142578 240.096161" style="enable-background:new 0 0 338.142578 240.096161;" xml:space="preserve">
<g>
	<path d="M87.349594,6.068234c-13.852592,3.2495-23.529297,16.995598-27.661095,22.865799c0,0-1.1856,1.6572-1.1861,1.6577
		c-0.004402,0.002899-4.785099,5.808599-4.785099,5.808599c-8.9659,11.046799-11.3755,14.015598-31.242701,17.518002
		l-0.080601,0.014698l-0.079599,0.021c-11.7138,3.151802-18.7129,12.896004-20.241199,28.1782
		C0.0947,96.478935,0,102.898331,0,121.017418c0.0332,1.340912,0.8218,31.801811,2.102,38.04792
		C5.3476,174.90123,12.1479,184.318237,22.3139,187.055527l0.079599,0.0215l0.081604,0.013702
		c19.866697,3.501907,22.276297,6.471695,31.242197,17.518494l4.850498,5.891602
		c-0.065899-0.082993,1.4034,2.085007,1.4034,2.085007c3.798798,5.798798,11.704102,17.865204,27.290497,22.332001
		l0.095703,0.027405l0.097702,0.016586c18.283195,3.185501,48.264595,5.104507,80.199196,5.133804
		c38.7099,0.037094,69.013596-1.841797,83.141602-5.155304c13.853485-3.248993,23.529297-16.995087,27.661102-22.865189
		c0,0,1.184601-1.656311,1.185577-1.657303c0.003906-0.002899,4.785126-5.808609,4.785126-5.808609
		c8.96579-11.047806,11.375977-14.016586,31.243195-17.518494l0.080994-0.013702l0.079102-0.0215
		c14.828186-3.992203,19.637695-21.704102,20.240295-28.192398c0.526306-5.658203,2.00882-36.448196,2.071289-37.756294
		c0-0.185104,0-0.368202,0-0.550804c0-17.788612-0.112396-24.223099-2.079102-38.492699
		c-1.521484-15.213799-8.520599-24.957497-20.232483-28.109299l-0.079102-0.021l-0.080994-0.014698
		c-19.867218-3.502403-22.276398-6.471203-31.243195-17.518002l-4.851593-5.891199
		c0.066467,0.0835-1.40033-2.082001-1.40033-2.082001c-3.798889-5.800299-11.703186-17.869099-27.291992-22.335899l-0.095688-0.0274
		l-0.097702-0.0171c-18.276398-3.185-48.257797-5.1044-80.199203-5.1347C131.783203,0.875421,101.4795,2.754835,87.349594,6.068234z
		"/>
	<path style="fill:#FFFFFF;" d="M56.6064,38.745033l4.805702-5.836399c0.066395-0.083,1.318798-1.8326,1.318798-1.8326
		c3.888203-5.523401,12.993702-18.4585,25.468296-21.384701c13.658203-3.2027,44.420403-5.0938,82.288094-5.0586
		c31.6689,0.0303,61.343704,1.9209,79.434601,5.0586c14.214798,4.101999,21.593704,15.358899,25.141617,20.774399l1.602478,2.3594
		c0.066406,0.0835,4.873016,5.920399,4.873016,5.920399c9.147491,11.27,12.246094,15.080101,33.375,18.816887
		c7.027405,1.907715,15.738281,7.784611,17.455109,24.940411c1.960999,14.242699,2.054688,20.589401,2.054688,38.514587
		c-0.013702,0.230515-1.539093,31.925819-2.057617,37.502007l0,0c-0.498993,5.377899-4.780273,21.485413-17.46579,24.929703
		c-21.116211,3.735291-24.216797,7.546906-33.362274,18.815399l-4.805725,5.835999
		c-0.066406,0.083893-1.31839,1.833008-1.31839,1.833008c-3.888611,5.523392-12.992096,18.458893-25.467712,21.383789
		c-13.656296,3.203094-44.418991,5.093704-82.288086,5.057602c-31.661606-0.029297-61.336403-1.919998-79.434608-5.057602
		c-14.212898-4.101593-21.592293-15.356491-25.139595-20.770599l-1.605503-2.36319
		c-0.065899-0.082108-4.871597-5.919006-4.871597-5.919006c-9.145-11.268494-12.245102-15.080109-33.361794-18.815399
		C10.1728,179.90033,6.8423,163.659027,5.7475,158.318237c-1.2143-5.925812-2.019-37.034607-2.0273-37.348106
		c0.0005-17.877899,0.0937-24.224602,2.0478-38.398895c0.956104-9.548904,4.7579-21.564003,17.471701-25.010303
		C44.361298,53.824635,47.4604,50.013535,56.6064,38.745033z"/>
	<path d="M63.084,210.546722c3.547302,5.414108,10.926697,16.669006,25.139595,20.770599
		c18.098206,3.137604,47.773003,5.028305,79.434608,5.057602c37.869095,0.036102,68.63179-1.854507,82.288086-5.057602
		c12.475616-2.924896,21.579102-15.860397,25.467712-21.383789c0,0,1.251984-1.749115,1.31839-1.833008l1.833008-2.226593
		c22.046906-81.961403,2.981506-158.459503-0.598602-171.4673c-0.723694-0.879402-1.27829-1.553703-1.300812-1.581501
		l-1.602478-2.3594c-3.547913-5.415501-10.926819-16.672401-25.141617-20.774399
		c-18.090897-3.1377-47.765701-5.0283-79.434601-5.0586c-37.867691-0.0352-68.62989,1.8559-82.288094,5.0586
		c-12.474594,2.9262-21.580093,15.861299-25.468296,21.384701c0,0-1.252403,1.749599-1.318798,1.8326L58.0737,36.962833v0.000401
		c-4.702103,19.033699-21.021999,95.208504-1.0019,165.865784c0,0,0,0,0.000397,0.0009
		c1.2061,1.464905,4.3531,5.287201,4.4063,5.353607L63.084,210.546722z"/>
	<path d="M53.7173,36.400333c0,0,1.402298-1.703201,2.6894-3.265701C48.684498,21.996534,39.087399,7.115634,35.0215,0.079035
		C22.441399-0.813579,9.103499,5.838735,7.3838,20.845634c10.039999,12.662598,12.008303,16.009201,21.411598,31.8437
		C42.992199,49.604832,45.806599,46.146835,53.7173,36.400333z"/>
	<g>
		<path style="fill:#FFFFFF;" d="M12.930599,27.987234l28.796398-16.9981c-0.546799-0.8603-1.079098-1.7011-1.592297-2.5171
			L11.1118,25.603933C11.7519,26.433535,12.356899,27.225933,12.930599,27.987234z"/>
		<path style="fill:#FFFFFF;" d="M19.1308,36.800632l28.437498-16.784599c-0.549301-0.835499-1.092701-1.666498-1.631798-2.493698
			L17.4809,34.318233C18.035599,35.134132,18.581999,35.95742,19.1308,36.800632z"/>
		<path style="fill:#FFFFFF;" d="M24.779299,45.942734l28.7656-16.9809c-0.5532-0.813999-1.110401-1.638201-1.670399-2.470699
			L23.2446,43.391533C23.732899,44.198135,24.245104,45.050632,24.779299,45.942734z"/>
	</g>
	<path d="M336.071289,158.863129L336.071289,158.863129L336.071289,158.863129L336.071289,158.863129z"/>
	<path style="fill:#FFFFFF;" d="M62.983398,120.767929c0,57.900894,47.106895,105.006393,105.009293,105.006393
		c57.90181,0,105.008316-47.105499,105.008316-105.006393c0-57.903297-47.106506-105.011192-105.008316-105.011192
		C110.090294,15.756734,62.983398,62.864632,62.983398,120.767929z"/>
	<path d="M68.628899,120.770424c0,54.787102,44.574203,99.359398,99.363304,99.359398
		c54.788986,0,99.362289-44.572296,99.362289-99.359398c0-54.791-44.573303-99.366188-99.362289-99.366188
		C113.203102,21.404234,68.628899,65.979424,68.628899,120.770424z"/>
	<path style="fill:#FFFFFF;" d="M24.367699,121.394424c0,15.99321,13.009201,29.003906,28.9995,29.003906
		c15.9902,0,28.9995-13.010696,28.9995-29.003906c0-15.989693-13.0093-28.998489-28.9995-28.998489
		C37.3769,92.395935,24.367699,105.404732,24.367699,121.394424z"/>
	<path d="M24.367699,121.394424c0-5.25489,1.4121-10.183594,3.866701-14.438492H3.8027
		c-0.0732,3.9356-0.0825,8.4077-0.0825,14.014198c0.003904,0.149399,0.189,7.290504,0.5127,15.366707H28.5224
		C25.887199,131.969635,24.367699,126.856331,24.367699,121.394424z"/>
	<path style="fill:#FFFFFF;" d="M109.819794,208.446228c-6.2183-0.168991-10.707993,1.052704-13.343796,3.629807
		c-2.205002,2.155289-2.258698,4.482498-2.257797,4.741287v19.191406c9.372093,1.297806,20.876495,2.325195,33.639198,3.025299
		l0.000496-24.679611l-0.349098-0.547882C126.9804,212.976425,123.6465,208.819229,109.819794,208.446228z"/>
	<path style="fill:#FFFFFF;" d="M242.524399,236.457932v-19.926804c0.000992-0.248001-0.051804-2.576202-2.256805-4.7314
		c-2.634796-2.577194-7.1241-3.797897-13.341797-3.629898c-13.830109,0.373001-17.164108,4.530304-17.691406,5.360306
		l-0.348694,0.547897v25.203094C222.568298,238.663925,234.005798,237.709824,242.524399,236.457932z"/>
	<path style="fill:#FFFFFF;" d="M226.923798,33.254333c6.218796,0.1679,10.707993-1.053299,13.343796-3.6304
		c2.205002-2.1553,2.257797-4.4834,2.256805-4.741699v-20.0723c-9.4561-1.2544-20.950211-2.2422-33.638702-2.9096v25.444799
		l0.348694,0.548286C209.761688,28.723034,213.095688,32.880733,226.923798,33.254333z"/>
	<path style="fill:#FFFFFF;" d="M94.2192,4.764034v19.7593c-0.000999,0.248087,0.052299,2.576199,2.257294,4.731899
		c2.635307,2.5767,7.124107,3.797901,13.341805,3.629902c13.829597-0.373501,17.162598-4.531202,17.690498-5.360802
		l0.349098-0.548401V1.790421C114.034599,2.444735,102.588394,3.451035,94.2192,4.764034z"/>
	<path style="fill:#FFFFFF;" d="M243.129898,190.437424c0,2.670898-2.164108,4.838806-4.838898,4.838806H98.237297
		c-2.672897,0-4.839897-2.167908-4.839897-4.838806V50.383732c0-2.672897,2.167-4.840897,4.839897-4.840897H238.291
		c2.674789,0,4.838898,2.167999,4.838898,4.840897V190.437424z"/>
	<path style="fill:#FFFFFF;" d="M244.821289,91.31633c0,12.547302,13.072205,22.755302,29.141602,22.755302
		c16.066406,0,29.137695-10.208,29.137695-22.755302c0-12.542999-13.071289-22.747597-29.137695-22.747597
		C257.893494,68.568733,244.821289,78.773331,244.821289,91.31633z"/>
	<path d="M296.184479,106.011635h38.137726c-0.177704-8.133301-0.657227-14.098602-1.953094-23.508804
		c-0.212921-2.126495-0.533234-4.078094-0.944305-5.872101h-35.235413c4.306702,3.965805,6.911194,9.091301,6.911194,14.6856
		C303.100586,96.914421,300.493103,102.043831,296.184479,106.011635z"/>
	<path d="M249.286102,91.31633c0-10.080597,11.070282-18.281799,24.676788-18.281799
		c13.604492,0,24.672791,8.201202,24.672791,18.281799c0,10.0849-11.068298,18.289505-24.672791,18.289505
		C260.356384,109.605835,249.286102,101.40123,249.286102,91.31633z"/>
	<path style="fill:#FFFFFF;" d="M255.025391,91.317329c0,6.901306,8.495117,12.515602,18.9375,12.515602
		c10.440399,0,18.933594-5.614296,18.933594-12.515602c0-6.897995-8.493195-12.509796-18.933594-12.509796
		C263.520508,78.807533,255.025391,84.419334,255.025391,91.317329z"/>
	<path d="M256.51358,91.317329c0-6.077194,7.828217-11.0215,17.44931-11.0215c9.61911,0,17.445313,4.944305,17.445313,11.0215
		c0,6.080505-7.826202,11.027306-17.445313,11.027306C264.341797,102.344635,256.51358,97.397835,256.51358,91.317329z"/>
	<path style="fill:#FFFFFF;" d="M244.821289,151.971527c0,12.547897,13.072205,22.756897,29.141602,22.756897
		c16.066406,0,29.137695-10.209,29.137695-22.756897c0-12.541901-13.071289-22.745102-29.137695-22.745102
		C257.893494,129.226425,244.821289,139.429626,244.821289,151.971527z"/>
	<path d="M296.189392,137.287033c4.305725,3.965805,6.911194,9.090805,6.911194,14.684494
		c0,5.597702-2.606476,10.7276-6.9151,14.695404h34.225616c1.192383-3.334,1.788086-6.344803,1.955078-8.147507
		c0.263702-2.839798,0.789001-12.450195,1.243225-21.232391H296.189392z"/>
	<path d="M249.286102,151.971527c0-10.080002,11.070282-18.280197,24.676788-18.280197
		c13.604492,0,24.672791,8.200195,24.672791,18.280197c0,10.085999-11.068298,18.292007-24.672791,18.292007
		C260.356384,170.263535,249.286102,162.057526,249.286102,151.971527z"/>
	<path style="fill:#FFFFFF;" d="M255.025391,152.137634c0,6.900391,8.495117,12.514603,18.9375,12.514603
		c10.440399,0,18.933594-5.614212,18.933594-12.514603c0-6.897507-8.493195-12.509796-18.933594-12.509796
		C263.520508,139.627838,255.025391,145.240128,255.025391,152.137634z"/>
	<path d="M256.51358,152.137634c0-6.077209,7.828217-11.0215,17.44931-11.0215c9.61911,0,17.445313,4.94429,17.445313,11.0215
		c0,6.080002-7.826202,11.026291-17.445313,11.026291C264.341797,163.163925,256.51358,158.217636,256.51358,152.137634z"/>
	<path d="M28.8335,121.394424c0-13.52729,11.005798-24.532692,24.533699-24.532692
		c13.527798,0,24.533703,11.005402,24.533703,24.532692c0,13.531204-11.005905,24.539108-24.533703,24.539108
		C39.839298,145.933533,28.8335,134.925629,28.8335,121.394424z"/>
	<path style="fill:#FFFFFF;" d="M34.872997,121.395424c0,10.199211,8.296402,18.497002,18.494202,18.497002
		c10.197701,0,18.494099-8.297791,18.494099-18.497002c0-10.197792-8.296398-18.494194-18.494099-18.494194
		C43.169399,102.90123,34.872997,111.197632,34.872997,121.395424z"/>
	<path d="M36.361298,121.395424c0-9.376999,7.628902-17.00589,17.005901-17.00589c9.376904,0,17.005802,7.628891,17.005802,17.00589
		c0,9.378914-7.628899,17.008812-17.005802,17.008812C43.9902,138.404236,36.361298,130.774338,36.361298,121.395424z"/>
	<path style="fill:#FFFFFF;" d="M42.619102,121.396423c0,5.927711,4.821297,10.750916,10.748096,10.750916
		c5.9272,0,10.748997-4.823204,10.748997-10.750916c0-5.926788-4.821796-10.748093-10.748997-10.748093
		C47.440399,110.648331,42.619102,115.469635,42.619102,121.396423z"/>
	<path d="M44.107399,121.396423c0-5.106003,4.153801-9.259789,9.2598-9.259789c5.1064,0,9.2607,4.153786,9.2607,9.259789
		c0,5.107407-4.154301,9.262604-9.2607,9.262604C48.2612,130.659027,44.107399,126.50383,44.107399,121.396423z"/>
	<path d="M238.059494,24.892422c0,0,0-11.402287,0-16.892c-7.303696-0.862287-15.652298-1.577187-24.708893-2.123087
		c0,5.7139,0,18.5005,0,19.873999c1.053696,0.810089,4.5224,2.7915,13.69429,3.039087
		C235.496994,29.018934,237.946289,26.293333,238.059494,24.892422z"/>
	<path d="M98.684494,7.892934c-0.000389,5.564-0.001389,16.558599-0.001389,16.558599
		c0.114189,1.4727,2.563889,4.198299,11.014595,3.969799c9.172401-0.247599,12.641594-2.2295,13.694405-3.039099
		c0-1.3535,0-13.7837,0-19.616199C113.745102,6.302135,105.392105,7.018934,98.684494,7.892934z"/>
	<path d="M98.684105,216.807526c0,0,0,10.29689,0,16.031204c7.259689,0.891602,15.610794,1.635803,24.708,2.2061
		c0-6.019501,0-17.781296,0-19.095703c-1.053307-0.810593-4.522507-2.791992-13.692909-3.0401
		C101.246994,212.681534,98.796898,215.407135,98.684105,216.807526z"/>
	<path d="M238.059494,233.293823c0.001007-5.520493,0.001999-16.690399,0.001999-16.690399
		c-0.115204-1.473602-2.564499-4.198288-11.014603-3.970688c-9.173889,0.247986-12.642593,2.229492-13.696289,3.039993
		c0,1.355499,0,13.826202,0,19.645493C222.919891,234.810425,231.269501,234.12883,238.059494,233.293823z"/>
</g>
</svg>
